<mxfile host="app.diagrams.net" agent="Mozilla/5.0 (Windows NT 10.0; Win64; x64) AppleWebKit/537.36 (KHTML, like Gecko) Chrome/131.0.0.0 Safari/537.36 Edg/131.0.0.0" version="24.8.9">
  <diagram name="Page-1" id="hwzhLI-EUPW886G1X4_t">
    <mxGraphModel dx="2316" dy="1364" grid="1" gridSize="10" guides="1" tooltips="1" connect="1" arrows="1" fold="1" page="1" pageScale="1" pageWidth="850" pageHeight="1100" math="0" shadow="0">
      <root>
        <mxCell id="0" />
        <mxCell id="1" parent="0" />
        <mxCell id="m3pFzwce0SuOFnxeOPYR-3" style="edgeStyle=orthogonalEdgeStyle;rounded=0;orthogonalLoop=1;jettySize=auto;html=1;exitX=1;exitY=0.5;exitDx=0;exitDy=0;entryX=0;entryY=0.5;entryDx=0;entryDy=0;" edge="1" parent="1" source="m3pFzwce0SuOFnxeOPYR-1" target="m3pFzwce0SuOFnxeOPYR-2">
          <mxGeometry relative="1" as="geometry" />
        </mxCell>
        <mxCell id="m3pFzwce0SuOFnxeOPYR-1" value="Start" style="ellipse;whiteSpace=wrap;html=1;" vertex="1" parent="1">
          <mxGeometry x="40" y="30" width="90" height="60" as="geometry" />
        </mxCell>
        <mxCell id="m3pFzwce0SuOFnxeOPYR-5" style="edgeStyle=orthogonalEdgeStyle;rounded=0;orthogonalLoop=1;jettySize=auto;html=1;exitX=1;exitY=0.5;exitDx=0;exitDy=0;entryX=0;entryY=0.5;entryDx=0;entryDy=0;" edge="1" parent="1" source="m3pFzwce0SuOFnxeOPYR-2" target="m3pFzwce0SuOFnxeOPYR-4">
          <mxGeometry relative="1" as="geometry" />
        </mxCell>
        <mxCell id="m3pFzwce0SuOFnxeOPYR-2" value="Harga, Voucher, Jarak, Pajak" style="shape=parallelogram;perimeter=parallelogramPerimeter;whiteSpace=wrap;html=1;fixedSize=1;fontSize=12;" vertex="1" parent="1">
          <mxGeometry x="180" y="30" width="120" height="60" as="geometry" />
        </mxCell>
        <mxCell id="m3pFzwce0SuOFnxeOPYR-7" style="edgeStyle=orthogonalEdgeStyle;rounded=0;orthogonalLoop=1;jettySize=auto;html=1;exitX=1;exitY=0.5;exitDx=0;exitDy=0;entryX=0;entryY=0.5;entryDx=0;entryDy=0;" edge="1" parent="1" source="m3pFzwce0SuOFnxeOPYR-4" target="m3pFzwce0SuOFnxeOPYR-6">
          <mxGeometry relative="1" as="geometry" />
        </mxCell>
        <mxCell id="m3pFzwce0SuOFnxeOPYR-95" style="edgeStyle=orthogonalEdgeStyle;rounded=0;orthogonalLoop=1;jettySize=auto;html=1;exitX=0.5;exitY=1;exitDx=0;exitDy=0;entryX=0.5;entryY=0;entryDx=0;entryDy=0;" edge="1" parent="1" source="m3pFzwce0SuOFnxeOPYR-4" target="m3pFzwce0SuOFnxeOPYR-94">
          <mxGeometry relative="1" as="geometry" />
        </mxCell>
        <mxCell id="m3pFzwce0SuOFnxeOPYR-4" value="Voucher == &quot;FAZZFOOD50&quot; || DITRAKTIR60&quot;" style="rhombus;whiteSpace=wrap;html=1;" vertex="1" parent="1">
          <mxGeometry x="350" width="130" height="120" as="geometry" />
        </mxCell>
        <mxCell id="m3pFzwce0SuOFnxeOPYR-9" style="edgeStyle=orthogonalEdgeStyle;rounded=0;orthogonalLoop=1;jettySize=auto;html=1;exitX=0.5;exitY=1;exitDx=0;exitDy=0;entryX=0.5;entryY=0;entryDx=0;entryDy=0;" edge="1" parent="1" source="m3pFzwce0SuOFnxeOPYR-6" target="m3pFzwce0SuOFnxeOPYR-8">
          <mxGeometry relative="1" as="geometry" />
        </mxCell>
        <mxCell id="m3pFzwce0SuOFnxeOPYR-123" style="edgeStyle=orthogonalEdgeStyle;rounded=0;orthogonalLoop=1;jettySize=auto;html=1;exitX=1;exitY=0.5;exitDx=0;exitDy=0;entryX=0.5;entryY=0;entryDx=0;entryDy=0;" edge="1" parent="1" source="m3pFzwce0SuOFnxeOPYR-6" target="m3pFzwce0SuOFnxeOPYR-112">
          <mxGeometry relative="1" as="geometry" />
        </mxCell>
        <mxCell id="m3pFzwce0SuOFnxeOPYR-6" value="Voucher == &quot;FAZZFOOD50&quot;" style="rhombus;whiteSpace=wrap;html=1;" vertex="1" parent="1">
          <mxGeometry x="550" y="5" width="110" height="110" as="geometry" />
        </mxCell>
        <mxCell id="m3pFzwce0SuOFnxeOPYR-11" style="edgeStyle=orthogonalEdgeStyle;rounded=0;orthogonalLoop=1;jettySize=auto;html=1;exitX=0.5;exitY=1;exitDx=0;exitDy=0;" edge="1" parent="1" source="m3pFzwce0SuOFnxeOPYR-8" target="m3pFzwce0SuOFnxeOPYR-10">
          <mxGeometry relative="1" as="geometry" />
        </mxCell>
        <mxCell id="m3pFzwce0SuOFnxeOPYR-125" style="edgeStyle=orthogonalEdgeStyle;rounded=0;orthogonalLoop=1;jettySize=auto;html=1;exitX=1;exitY=0.5;exitDx=0;exitDy=0;entryX=0.5;entryY=0;entryDx=0;entryDy=0;" edge="1" parent="1" source="m3pFzwce0SuOFnxeOPYR-8" target="m3pFzwce0SuOFnxeOPYR-124">
          <mxGeometry relative="1" as="geometry" />
        </mxCell>
        <mxCell id="m3pFzwce0SuOFnxeOPYR-8" value="Harga &amp;gt;= Rp50.000" style="rhombus;whiteSpace=wrap;html=1;" vertex="1" parent="1">
          <mxGeometry x="550" y="170" width="110" height="110" as="geometry" />
        </mxCell>
        <mxCell id="m3pFzwce0SuOFnxeOPYR-13" style="edgeStyle=orthogonalEdgeStyle;rounded=0;orthogonalLoop=1;jettySize=auto;html=1;exitX=0.5;exitY=1;exitDx=0;exitDy=0;" edge="1" parent="1" source="m3pFzwce0SuOFnxeOPYR-10" target="m3pFzwce0SuOFnxeOPYR-12">
          <mxGeometry relative="1" as="geometry" />
        </mxCell>
        <mxCell id="m3pFzwce0SuOFnxeOPYR-10" value="Discount = Harga * 0.5" style="rounded=1;whiteSpace=wrap;html=1;" vertex="1" parent="1">
          <mxGeometry x="545" y="330" width="120" height="60" as="geometry" />
        </mxCell>
        <mxCell id="m3pFzwce0SuOFnxeOPYR-20" style="edgeStyle=orthogonalEdgeStyle;rounded=0;orthogonalLoop=1;jettySize=auto;html=1;exitX=0;exitY=0.5;exitDx=0;exitDy=0;entryX=0.5;entryY=0;entryDx=0;entryDy=0;" edge="1" parent="1" source="m3pFzwce0SuOFnxeOPYR-12" target="m3pFzwce0SuOFnxeOPYR-18">
          <mxGeometry relative="1" as="geometry" />
        </mxCell>
        <mxCell id="m3pFzwce0SuOFnxeOPYR-30" style="edgeStyle=orthogonalEdgeStyle;rounded=0;orthogonalLoop=1;jettySize=auto;html=1;exitX=0.5;exitY=1;exitDx=0;exitDy=0;entryX=0.5;entryY=0;entryDx=0;entryDy=0;" edge="1" parent="1" source="m3pFzwce0SuOFnxeOPYR-12" target="m3pFzwce0SuOFnxeOPYR-29">
          <mxGeometry relative="1" as="geometry" />
        </mxCell>
        <mxCell id="m3pFzwce0SuOFnxeOPYR-12" value="Discount &amp;gt; Rp50.000" style="rhombus;whiteSpace=wrap;html=1;" vertex="1" parent="1">
          <mxGeometry x="550" y="430" width="110" height="120" as="geometry" />
        </mxCell>
        <mxCell id="m3pFzwce0SuOFnxeOPYR-31" style="edgeStyle=orthogonalEdgeStyle;rounded=0;orthogonalLoop=1;jettySize=auto;html=1;exitX=1;exitY=0.5;exitDx=0;exitDy=0;entryX=0.5;entryY=0;entryDx=0;entryDy=0;" edge="1" parent="1" source="m3pFzwce0SuOFnxeOPYR-18" target="m3pFzwce0SuOFnxeOPYR-29">
          <mxGeometry relative="1" as="geometry" />
        </mxCell>
        <mxCell id="m3pFzwce0SuOFnxeOPYR-18" value="Discount = Rp50.000" style="rounded=1;whiteSpace=wrap;html=1;" vertex="1" parent="1">
          <mxGeometry x="400" y="550" width="120" height="60" as="geometry" />
        </mxCell>
        <mxCell id="m3pFzwce0SuOFnxeOPYR-25" style="edgeStyle=orthogonalEdgeStyle;rounded=0;orthogonalLoop=1;jettySize=auto;html=1;exitX=0.5;exitY=1;exitDx=0;exitDy=0;entryX=0.5;entryY=0;entryDx=0;entryDy=0;" edge="1" parent="1" source="m3pFzwce0SuOFnxeOPYR-19" target="m3pFzwce0SuOFnxeOPYR-24">
          <mxGeometry relative="1" as="geometry" />
        </mxCell>
        <mxCell id="m3pFzwce0SuOFnxeOPYR-27" style="edgeStyle=orthogonalEdgeStyle;rounded=0;orthogonalLoop=1;jettySize=auto;html=1;exitX=0;exitY=0.5;exitDx=0;exitDy=0;entryX=0.5;entryY=0;entryDx=0;entryDy=0;" edge="1" parent="1" source="m3pFzwce0SuOFnxeOPYR-19" target="m3pFzwce0SuOFnxeOPYR-26">
          <mxGeometry relative="1" as="geometry" />
        </mxCell>
        <mxCell id="m3pFzwce0SuOFnxeOPYR-19" value="Jarak &amp;lt;= 2km" style="rhombus;whiteSpace=wrap;html=1;" vertex="1" parent="1">
          <mxGeometry x="542.5" y="800" width="125" height="120" as="geometry" />
        </mxCell>
        <mxCell id="m3pFzwce0SuOFnxeOPYR-35" style="edgeStyle=orthogonalEdgeStyle;rounded=0;orthogonalLoop=1;jettySize=auto;html=1;exitX=0.5;exitY=1;exitDx=0;exitDy=0;entryX=0.5;entryY=0;entryDx=0;entryDy=0;" edge="1" parent="1" source="m3pFzwce0SuOFnxeOPYR-24" target="m3pFzwce0SuOFnxeOPYR-34">
          <mxGeometry relative="1" as="geometry" />
        </mxCell>
        <mxCell id="m3pFzwce0SuOFnxeOPYR-24" value="Ongkir = Jarak * Rp5.000" style="rounded=1;whiteSpace=wrap;html=1;" vertex="1" parent="1">
          <mxGeometry x="545" y="950" width="120" height="60" as="geometry" />
        </mxCell>
        <mxCell id="m3pFzwce0SuOFnxeOPYR-36" style="edgeStyle=orthogonalEdgeStyle;rounded=0;orthogonalLoop=1;jettySize=auto;html=1;exitX=0.5;exitY=1;exitDx=0;exitDy=0;entryX=0.5;entryY=0;entryDx=0;entryDy=0;" edge="1" parent="1" source="m3pFzwce0SuOFnxeOPYR-26" target="m3pFzwce0SuOFnxeOPYR-34">
          <mxGeometry relative="1" as="geometry" />
        </mxCell>
        <mxCell id="m3pFzwce0SuOFnxeOPYR-26" value="Ongkir = (Jarak - 2) * Rp3.000 + Rp5.000" style="rounded=1;whiteSpace=wrap;html=1;" vertex="1" parent="1">
          <mxGeometry x="350" y="950" width="120" height="60" as="geometry" />
        </mxCell>
        <mxCell id="m3pFzwce0SuOFnxeOPYR-32" style="edgeStyle=orthogonalEdgeStyle;rounded=0;orthogonalLoop=1;jettySize=auto;html=1;exitX=0.5;exitY=1;exitDx=0;exitDy=0;entryX=0.5;entryY=0;entryDx=0;entryDy=0;" edge="1" parent="1" source="m3pFzwce0SuOFnxeOPYR-29" target="m3pFzwce0SuOFnxeOPYR-19">
          <mxGeometry relative="1" as="geometry" />
        </mxCell>
        <mxCell id="m3pFzwce0SuOFnxeOPYR-29" value="Ongkir = 0" style="rounded=1;whiteSpace=wrap;html=1;" vertex="1" parent="1">
          <mxGeometry x="545" y="650" width="120" height="60" as="geometry" />
        </mxCell>
        <mxCell id="m3pFzwce0SuOFnxeOPYR-38" style="edgeStyle=orthogonalEdgeStyle;rounded=0;orthogonalLoop=1;jettySize=auto;html=1;exitX=1;exitY=0.5;exitDx=0;exitDy=0;entryX=0.5;entryY=0;entryDx=0;entryDy=0;" edge="1" parent="1" source="m3pFzwce0SuOFnxeOPYR-34" target="m3pFzwce0SuOFnxeOPYR-37">
          <mxGeometry relative="1" as="geometry" />
        </mxCell>
        <mxCell id="m3pFzwce0SuOFnxeOPYR-40" style="edgeStyle=orthogonalEdgeStyle;rounded=0;orthogonalLoop=1;jettySize=auto;html=1;exitX=0;exitY=0.5;exitDx=0;exitDy=0;entryX=0.5;entryY=0;entryDx=0;entryDy=0;" edge="1" parent="1" source="m3pFzwce0SuOFnxeOPYR-34" target="m3pFzwce0SuOFnxeOPYR-39">
          <mxGeometry relative="1" as="geometry" />
        </mxCell>
        <mxCell id="m3pFzwce0SuOFnxeOPYR-34" value="Pajak ?" style="rhombus;whiteSpace=wrap;html=1;" vertex="1" parent="1">
          <mxGeometry x="460" y="1100" width="100" height="100" as="geometry" />
        </mxCell>
        <mxCell id="m3pFzwce0SuOFnxeOPYR-47" style="edgeStyle=orthogonalEdgeStyle;rounded=0;orthogonalLoop=1;jettySize=auto;html=1;exitX=0;exitY=0.5;exitDx=0;exitDy=0;entryX=0.5;entryY=0;entryDx=0;entryDy=0;" edge="1" parent="1" source="m3pFzwce0SuOFnxeOPYR-37">
          <mxGeometry relative="1" as="geometry">
            <mxPoint x="507.5" y="1380.0000000000002" as="targetPoint" />
          </mxGeometry>
        </mxCell>
        <mxCell id="m3pFzwce0SuOFnxeOPYR-37" value="Tax = harga * 0.05" style="rounded=1;whiteSpace=wrap;html=1;" vertex="1" parent="1">
          <mxGeometry x="570" y="1250" width="120" height="60" as="geometry" />
        </mxCell>
        <mxCell id="m3pFzwce0SuOFnxeOPYR-46" style="edgeStyle=orthogonalEdgeStyle;rounded=0;orthogonalLoop=1;jettySize=auto;html=1;exitX=1;exitY=0.5;exitDx=0;exitDy=0;entryX=0.5;entryY=0;entryDx=0;entryDy=0;" edge="1" parent="1" source="m3pFzwce0SuOFnxeOPYR-39">
          <mxGeometry relative="1" as="geometry">
            <mxPoint x="507.5" y="1380.0000000000002" as="targetPoint" />
          </mxGeometry>
        </mxCell>
        <mxCell id="m3pFzwce0SuOFnxeOPYR-39" value="Tax = 0" style="rounded=1;whiteSpace=wrap;html=1;" vertex="1" parent="1">
          <mxGeometry x="320" y="1250" width="120" height="60" as="geometry" />
        </mxCell>
        <mxCell id="m3pFzwce0SuOFnxeOPYR-51" style="edgeStyle=orthogonalEdgeStyle;rounded=0;orthogonalLoop=1;jettySize=auto;html=1;exitX=0.5;exitY=1;exitDx=0;exitDy=0;entryX=0.5;entryY=0;entryDx=0;entryDy=0;" edge="1" parent="1" source="m3pFzwce0SuOFnxeOPYR-48" target="m3pFzwce0SuOFnxeOPYR-49">
          <mxGeometry relative="1" as="geometry" />
        </mxCell>
        <mxCell id="m3pFzwce0SuOFnxeOPYR-48" value="SubTotal = (Harga - Discount) + Ongkir + Tax" style="rounded=1;whiteSpace=wrap;html=1;" vertex="1" parent="1">
          <mxGeometry x="450" y="1380" width="120" height="60" as="geometry" />
        </mxCell>
        <mxCell id="m3pFzwce0SuOFnxeOPYR-53" style="edgeStyle=orthogonalEdgeStyle;rounded=0;orthogonalLoop=1;jettySize=auto;html=1;exitX=0.5;exitY=1;exitDx=0;exitDy=0;entryX=0.5;entryY=0;entryDx=0;entryDy=0;" edge="1" parent="1" source="m3pFzwce0SuOFnxeOPYR-49" target="m3pFzwce0SuOFnxeOPYR-52">
          <mxGeometry relative="1" as="geometry" />
        </mxCell>
        <mxCell id="m3pFzwce0SuOFnxeOPYR-49" value="&quot;Harga&quot;: Harga,&lt;br&gt;&quot;Discount: Discount,&lt;br&gt;&quot;Ongkir&quot;: Ongkir&lt;br&gt;&lt;div&gt;&quot;Pajak&quot;: Tax,&lt;/div&gt;&lt;div&gt;&quot;SubTotal&quot;: Subtotal&lt;/div&gt;" style="shape=parallelogram;perimeter=parallelogramPerimeter;whiteSpace=wrap;html=1;fixedSize=1;" vertex="1" parent="1">
          <mxGeometry x="435" y="1520" width="150" height="70" as="geometry" />
        </mxCell>
        <mxCell id="m3pFzwce0SuOFnxeOPYR-52" value="End" style="ellipse;whiteSpace=wrap;html=1;" vertex="1" parent="1">
          <mxGeometry x="447.5" y="1670" width="125" height="90" as="geometry" />
        </mxCell>
        <mxCell id="m3pFzwce0SuOFnxeOPYR-98" style="edgeStyle=orthogonalEdgeStyle;rounded=0;orthogonalLoop=1;jettySize=auto;html=1;exitX=0.5;exitY=1;exitDx=0;exitDy=0;entryX=0;entryY=0.5;entryDx=0;entryDy=0;" edge="1" parent="1" source="m3pFzwce0SuOFnxeOPYR-94" target="m3pFzwce0SuOFnxeOPYR-29">
          <mxGeometry relative="1" as="geometry" />
        </mxCell>
        <mxCell id="m3pFzwce0SuOFnxeOPYR-94" value="&quot;Voucher Tidak valid&quot;&lt;br&gt;Discount = 0" style="rounded=1;whiteSpace=wrap;html=1;" vertex="1" parent="1">
          <mxGeometry x="220" y="560" width="120" height="60" as="geometry" />
        </mxCell>
        <mxCell id="m3pFzwce0SuOFnxeOPYR-111" style="edgeStyle=orthogonalEdgeStyle;rounded=0;orthogonalLoop=1;jettySize=auto;html=1;exitX=0.5;exitY=1;exitDx=0;exitDy=0;" edge="1" source="m3pFzwce0SuOFnxeOPYR-112" target="m3pFzwce0SuOFnxeOPYR-114" parent="1">
          <mxGeometry relative="1" as="geometry" />
        </mxCell>
        <mxCell id="m3pFzwce0SuOFnxeOPYR-133" style="edgeStyle=orthogonalEdgeStyle;rounded=0;orthogonalLoop=1;jettySize=auto;html=1;exitX=1;exitY=0.5;exitDx=0;exitDy=0;entryX=0.5;entryY=0;entryDx=0;entryDy=0;" edge="1" parent="1" source="m3pFzwce0SuOFnxeOPYR-112" target="m3pFzwce0SuOFnxeOPYR-132">
          <mxGeometry relative="1" as="geometry" />
        </mxCell>
        <mxCell id="m3pFzwce0SuOFnxeOPYR-112" value="Harga &amp;gt;= Rp25.000" style="rhombus;whiteSpace=wrap;html=1;" vertex="1" parent="1">
          <mxGeometry x="1075" y="90" width="110" height="110" as="geometry" />
        </mxCell>
        <mxCell id="m3pFzwce0SuOFnxeOPYR-113" style="edgeStyle=orthogonalEdgeStyle;rounded=0;orthogonalLoop=1;jettySize=auto;html=1;exitX=0.5;exitY=1;exitDx=0;exitDy=0;" edge="1" source="m3pFzwce0SuOFnxeOPYR-114" target="m3pFzwce0SuOFnxeOPYR-116" parent="1">
          <mxGeometry relative="1" as="geometry" />
        </mxCell>
        <mxCell id="m3pFzwce0SuOFnxeOPYR-114" value="Discount = Harga * 0.6" style="rounded=1;whiteSpace=wrap;html=1;" vertex="1" parent="1">
          <mxGeometry x="1070" y="250" width="120" height="60" as="geometry" />
        </mxCell>
        <mxCell id="m3pFzwce0SuOFnxeOPYR-128" style="edgeStyle=orthogonalEdgeStyle;rounded=0;orthogonalLoop=1;jettySize=auto;html=1;exitX=0;exitY=0.5;exitDx=0;exitDy=0;entryX=0.5;entryY=0;entryDx=0;entryDy=0;" edge="1" parent="1" source="m3pFzwce0SuOFnxeOPYR-116" target="m3pFzwce0SuOFnxeOPYR-127">
          <mxGeometry relative="1" as="geometry" />
        </mxCell>
        <mxCell id="m3pFzwce0SuOFnxeOPYR-129" style="edgeStyle=orthogonalEdgeStyle;rounded=0;orthogonalLoop=1;jettySize=auto;html=1;exitX=0.5;exitY=1;exitDx=0;exitDy=0;entryX=1;entryY=0.5;entryDx=0;entryDy=0;" edge="1" parent="1" source="m3pFzwce0SuOFnxeOPYR-116" target="m3pFzwce0SuOFnxeOPYR-29">
          <mxGeometry relative="1" as="geometry" />
        </mxCell>
        <mxCell id="m3pFzwce0SuOFnxeOPYR-116" value="Discount &amp;gt; Rp30.000" style="rhombus;whiteSpace=wrap;html=1;" vertex="1" parent="1">
          <mxGeometry x="1075" y="350" width="110" height="120" as="geometry" />
        </mxCell>
        <mxCell id="m3pFzwce0SuOFnxeOPYR-126" style="edgeStyle=orthogonalEdgeStyle;rounded=0;orthogonalLoop=1;jettySize=auto;html=1;exitX=0.5;exitY=1;exitDx=0;exitDy=0;entryX=1;entryY=0.5;entryDx=0;entryDy=0;" edge="1" parent="1" source="m3pFzwce0SuOFnxeOPYR-124" target="m3pFzwce0SuOFnxeOPYR-29">
          <mxGeometry relative="1" as="geometry" />
        </mxCell>
        <mxCell id="m3pFzwce0SuOFnxeOPYR-124" value="&lt;br&gt;&lt;span style=&quot;color: rgb(0, 0, 0); font-family: Helvetica; font-size: 12px; font-style: normal; font-variant-ligatures: normal; font-variant-caps: normal; font-weight: 400; letter-spacing: normal; orphans: 2; text-align: center; text-indent: 0px; text-transform: none; widows: 2; word-spacing: 0px; -webkit-text-stroke-width: 0px; white-space: normal; background-color: rgb(251, 251, 251); text-decoration-thickness: initial; text-decoration-style: initial; text-decoration-color: initial; display: inline !important; float: none;&quot;&gt;&quot;Pesanan Minimal Rp 50.000&quot;&lt;/span&gt;&lt;br style=&quot;forced-color-adjust: none; color: rgb(0, 0, 0); font-family: Helvetica; font-size: 12px; font-style: normal; font-variant-ligatures: normal; font-variant-caps: normal; font-weight: 400; letter-spacing: normal; orphans: 2; text-align: center; text-indent: 0px; text-transform: none; widows: 2; word-spacing: 0px; -webkit-text-stroke-width: 0px; white-space: normal; background-color: rgb(251, 251, 251); text-decoration-thickness: initial; text-decoration-style: initial; text-decoration-color: initial;&quot;&gt;&lt;span style=&quot;color: rgb(0, 0, 0); font-family: Helvetica; font-size: 12px; font-style: normal; font-variant-ligatures: normal; font-variant-caps: normal; font-weight: 400; letter-spacing: normal; orphans: 2; text-align: center; text-indent: 0px; text-transform: none; widows: 2; word-spacing: 0px; -webkit-text-stroke-width: 0px; white-space: normal; background-color: rgb(251, 251, 251); text-decoration-thickness: initial; text-decoration-style: initial; text-decoration-color: initial; display: inline !important; float: none;&quot;&gt;Discount = 0&lt;/span&gt;&lt;div&gt;&lt;br/&gt;&lt;/div&gt;" style="rounded=1;whiteSpace=wrap;html=1;" vertex="1" parent="1">
          <mxGeometry x="780" y="560" width="120" height="60" as="geometry" />
        </mxCell>
        <mxCell id="m3pFzwce0SuOFnxeOPYR-130" style="edgeStyle=orthogonalEdgeStyle;rounded=0;orthogonalLoop=1;jettySize=auto;html=1;exitX=0.5;exitY=1;exitDx=0;exitDy=0;entryX=1;entryY=0.5;entryDx=0;entryDy=0;" edge="1" parent="1" source="m3pFzwce0SuOFnxeOPYR-127" target="m3pFzwce0SuOFnxeOPYR-29">
          <mxGeometry relative="1" as="geometry" />
        </mxCell>
        <mxCell id="m3pFzwce0SuOFnxeOPYR-127" value="Discount = Rp30.000" style="rounded=1;whiteSpace=wrap;html=1;" vertex="1" parent="1">
          <mxGeometry x="940" y="560" width="120" height="60" as="geometry" />
        </mxCell>
        <mxCell id="m3pFzwce0SuOFnxeOPYR-134" style="edgeStyle=orthogonalEdgeStyle;rounded=0;orthogonalLoop=1;jettySize=auto;html=1;exitX=0.5;exitY=1;exitDx=0;exitDy=0;entryX=1;entryY=0.5;entryDx=0;entryDy=0;" edge="1" parent="1" source="m3pFzwce0SuOFnxeOPYR-132" target="m3pFzwce0SuOFnxeOPYR-29">
          <mxGeometry relative="1" as="geometry" />
        </mxCell>
        <mxCell id="m3pFzwce0SuOFnxeOPYR-132" value="&lt;br&gt;&quot;Pesanan Minimal Rp 25.000&quot;&lt;br&gt;Discount = 0&lt;div&gt;&lt;br&gt;&lt;/div&gt;" style="rounded=1;whiteSpace=wrap;html=1;" vertex="1" parent="1">
          <mxGeometry x="1290" y="560" width="120" height="60" as="geometry" />
        </mxCell>
        <mxCell id="m3pFzwce0SuOFnxeOPYR-135" value="&lt;font color=&quot;#00ff00&quot;&gt;True&lt;/font&gt;" style="text;strokeColor=none;align=center;fillColor=none;html=1;verticalAlign=middle;whiteSpace=wrap;rounded=0;fontStyle=1;fontSize=19;" vertex="1" parent="1">
          <mxGeometry x="490" y="440" width="80" height="50" as="geometry" />
        </mxCell>
        <mxCell id="m3pFzwce0SuOFnxeOPYR-136" value="&lt;font color=&quot;#ff9999&quot;&gt;False&lt;/font&gt;" style="text;strokeColor=none;align=center;fillColor=none;html=1;verticalAlign=middle;whiteSpace=wrap;rounded=0;fontStyle=1;fontSize=19;" vertex="1" parent="1">
          <mxGeometry x="480" y="800" width="80" height="50" as="geometry" />
        </mxCell>
        <mxCell id="m3pFzwce0SuOFnxeOPYR-137" value="&lt;font color=&quot;#00ff00&quot;&gt;True&lt;/font&gt;" style="text;strokeColor=none;align=center;fillColor=none;html=1;verticalAlign=middle;whiteSpace=wrap;rounded=0;fontStyle=1;fontSize=19;" vertex="1" parent="1">
          <mxGeometry x="590" y="260" width="80" height="50" as="geometry" />
        </mxCell>
        <mxCell id="m3pFzwce0SuOFnxeOPYR-138" value="&lt;font color=&quot;#00ff00&quot;&gt;True&lt;/font&gt;" style="text;strokeColor=none;align=center;fillColor=none;html=1;verticalAlign=middle;whiteSpace=wrap;rounded=0;fontStyle=1;fontSize=19;" vertex="1" parent="1">
          <mxGeometry x="590" y="100" width="80" height="50" as="geometry" />
        </mxCell>
        <mxCell id="m3pFzwce0SuOFnxeOPYR-139" value="&lt;font color=&quot;#00ff00&quot;&gt;True&lt;/font&gt;" style="text;strokeColor=none;align=center;fillColor=none;html=1;verticalAlign=middle;whiteSpace=wrap;rounded=0;fontStyle=1;fontSize=19;" vertex="1" parent="1">
          <mxGeometry x="465" y="20" width="80" height="50" as="geometry" />
        </mxCell>
        <mxCell id="m3pFzwce0SuOFnxeOPYR-140" value="&lt;font color=&quot;#00ff00&quot;&gt;True&lt;/font&gt;" style="text;strokeColor=none;align=center;fillColor=none;html=1;verticalAlign=middle;whiteSpace=wrap;rounded=0;fontStyle=1;fontSize=19;" vertex="1" parent="1">
          <mxGeometry x="542.5" y="1110" width="80" height="50" as="geometry" />
        </mxCell>
        <mxCell id="m3pFzwce0SuOFnxeOPYR-141" value="&lt;font color=&quot;#00ff00&quot;&gt;True&lt;/font&gt;" style="text;strokeColor=none;align=center;fillColor=none;html=1;verticalAlign=middle;whiteSpace=wrap;rounded=0;fontStyle=1;fontSize=19;" vertex="1" parent="1">
          <mxGeometry x="600" y="900" width="80" height="50" as="geometry" />
        </mxCell>
        <mxCell id="m3pFzwce0SuOFnxeOPYR-142" value="&lt;font color=&quot;#00ff00&quot;&gt;True&lt;/font&gt;" style="text;strokeColor=none;align=center;fillColor=none;html=1;verticalAlign=middle;whiteSpace=wrap;rounded=0;fontStyle=1;fontSize=19;" vertex="1" parent="1">
          <mxGeometry x="1010" y="360" width="80" height="50" as="geometry" />
        </mxCell>
        <mxCell id="m3pFzwce0SuOFnxeOPYR-143" value="&lt;font color=&quot;#00ff00&quot;&gt;True&lt;/font&gt;" style="text;strokeColor=none;align=center;fillColor=none;html=1;verticalAlign=middle;whiteSpace=wrap;rounded=0;fontStyle=1;fontSize=19;" vertex="1" parent="1">
          <mxGeometry x="1120" y="190" width="80" height="50" as="geometry" />
        </mxCell>
        <mxCell id="m3pFzwce0SuOFnxeOPYR-144" value="&lt;font color=&quot;#ff9999&quot;&gt;False&lt;/font&gt;" style="text;strokeColor=none;align=center;fillColor=none;html=1;verticalAlign=middle;whiteSpace=wrap;rounded=0;fontStyle=1;fontSize=19;" vertex="1" parent="1">
          <mxGeometry x="600" y="540" width="80" height="50" as="geometry" />
        </mxCell>
        <mxCell id="m3pFzwce0SuOFnxeOPYR-145" value="&lt;font color=&quot;#ff9999&quot;&gt;False&lt;/font&gt;" style="text;strokeColor=none;align=center;fillColor=none;html=1;verticalAlign=middle;whiteSpace=wrap;rounded=0;fontStyle=1;fontSize=19;" vertex="1" parent="1">
          <mxGeometry x="650" y="180" width="80" height="50" as="geometry" />
        </mxCell>
        <mxCell id="m3pFzwce0SuOFnxeOPYR-146" value="&lt;font color=&quot;#ff9999&quot;&gt;False&lt;/font&gt;" style="text;strokeColor=none;align=center;fillColor=none;html=1;verticalAlign=middle;whiteSpace=wrap;rounded=0;fontStyle=1;fontSize=19;" vertex="1" parent="1">
          <mxGeometry x="660" y="10" width="80" height="50" as="geometry" />
        </mxCell>
        <mxCell id="m3pFzwce0SuOFnxeOPYR-147" value="&lt;font color=&quot;#ff9999&quot;&gt;False&lt;/font&gt;" style="text;strokeColor=none;align=center;fillColor=none;html=1;verticalAlign=middle;whiteSpace=wrap;rounded=0;fontStyle=1;fontSize=19;" vertex="1" parent="1">
          <mxGeometry x="410" y="110" width="80" height="50" as="geometry" />
        </mxCell>
        <mxCell id="m3pFzwce0SuOFnxeOPYR-148" value="&lt;font color=&quot;#ff9999&quot;&gt;False&lt;/font&gt;" style="text;strokeColor=none;align=center;fillColor=none;html=1;verticalAlign=middle;whiteSpace=wrap;rounded=0;fontStyle=1;fontSize=19;" vertex="1" parent="1">
          <mxGeometry x="1130" y="450" width="80" height="50" as="geometry" />
        </mxCell>
        <mxCell id="m3pFzwce0SuOFnxeOPYR-149" value="&lt;font color=&quot;#ff9999&quot;&gt;False&lt;/font&gt;" style="text;strokeColor=none;align=center;fillColor=none;html=1;verticalAlign=middle;whiteSpace=wrap;rounded=0;fontStyle=1;fontSize=19;" vertex="1" parent="1">
          <mxGeometry x="390" y="1100" width="80" height="50" as="geometry" />
        </mxCell>
        <mxCell id="m3pFzwce0SuOFnxeOPYR-150" value="&lt;font color=&quot;#ff9999&quot;&gt;False&lt;/font&gt;" style="text;strokeColor=none;align=center;fillColor=none;html=1;verticalAlign=middle;whiteSpace=wrap;rounded=0;fontStyle=1;fontSize=19;" vertex="1" parent="1">
          <mxGeometry x="1180" y="90" width="80" height="50" as="geometry" />
        </mxCell>
      </root>
    </mxGraphModel>
  </diagram>
</mxfile>
